<svg xmlns="http://www.w3.org/2000/svg" viewBox="0 0 48 48"><g><path d="M40,8H8c-2.2,0-4,1.8-4,4v24c0,2.2,1.8,4,4,4h32c2.2,0,4-1.8,4-4V12C44,9.8,42.2,8,40,8z M40,10c0.4,0,0.7,0.1,1,0.3L24.5,37.7V10H40z M8,38c-1.1,0-2-0.9-2-2V12c0-1.1,0.9-2,2-2h15.5v28H8z M42,36c0,1.1-0.9,2-2,2H25.5l16.3-27c0.2,0.3,0.3,0.6,0.3,1V36z"></path><path d="M20.5,24h-11C9.2,24,9,24.2,9,24.5S9.2,25,9.5,25h11c0.3,0,0.5-0.2,0.5-0.5S20.8,24,20.5,24z"></path><path d="M20.5,20h-11C9.2,20,9,20.2,9,20.5S9.2,21,9.5,21h11c0.3,0,0.5-0.2,0.5-0.5S20.8,20,20.5,20z"></path><path d="M20.5,28h-11C9.2,28,9,28.2,9,28.5S9.2,29,9.5,29h11c0.3,0,0.5-0.2,0.5-0.5S20.8,28,20.5,28z"></path></g></svg>