<svg xmlns="http://www.w3.org/2000/svg" viewBox="0 0 48 48"><g><path d="M12.5,33c0,0.3,0.2,0.5,0.5,0.5h22c0.3,0,0.5-0.2,0.5-0.5s-0.2-0.5-0.5-0.5H13C12.7,32.5,12.5,32.7,12.5,33z"></path><path d="M35,40.5H13c-0.3,0-0.5,0.2-0.5,0.5s0.2,0.5,0.5,0.5h22c0.3,0,0.5-0.2,0.5-0.5S35.3,40.5,35,40.5z"></path><path d="M35,36.5H13c-0.3,0-0.5,0.2-0.5,0.5s0.2,0.5,0.5,0.5h22c0.3,0,0.5-0.2,0.5-0.5S35.3,36.5,35,36.5z"></path><path d="M16.7,19c-0.5,0-0.9-0.1-1.2-0.4c-0.3-0.3-0.5-0.6-0.5-1h-2.3c0,1,0.4,1.8,1.1,2.4c0.7,0.6,1.6,0.9,2.8,0.9c1.2,0,2.2-0.3,2.9-0.9c0.7-0.6,1.1-1.4,1.1-2.4c0-0.6-0.2-1.2-0.5-1.6c-0.3-0.5-0.8-0.8-1.4-1c0.5-0.2,0.9-0.6,1.2-1c0.3-0.4,0.5-0.9,0.5-1.4c0-1-0.3-1.8-1-2.4c-0.7-0.6-1.6-0.9-2.8-0.9c-0.7,0-1.3,0.1-1.9,0.4c-0.6,0.3-1,0.6-1.3,1.1c-0.3,0.5-0.5,1-0.5,1.6h2.3c0-0.4,0.1-0.7,0.4-0.9c0.3-0.2,0.7-0.4,1.1-0.4c0.5,0,0.9,0.1,1.1,0.4c0.3,0.3,0.4,0.6,0.4,1.1c0,0.5-0.1,0.9-0.4,1.1c-0.3,0.3-0.7,0.4-1.3,0.4h-1.2v1.8h1.2c1.2,0,1.9,0.6,1.9,1.7c0,0.5-0.2,0.8-0.5,1.1C17.7,18.9,17.2,19,16.7,19z"></path><path d="M24.3,11.5c0.3-0.4,0.7-0.5,1.2-0.5c0.5,0,0.8,0.1,1.1,0.4c0.3,0.3,0.4,0.7,0.4,1.2c0,0.4-0.1,0.8-0.4,1.2c-0.2,0.4-0.6,0.9-1.1,1.4l-3.7,3.9v1.5h7.8v-1.8h-4.9l2.6-2.7c0.7-0.8,1.2-1.5,1.5-2c0.3-0.6,0.4-1.2,0.4-1.7c0-1-0.3-1.8-1-2.4s-1.6-0.8-2.7-0.8c-0.8,0-1.4,0.2-2.1,0.5c-0.6,0.3-1.1,0.8-1.4,1.3c-0.3,0.6-0.5,1.2-0.5,1.9h2.3C23.9,12.3,24,11.9,24.3,11.5z"></path><path d="M13,27.6c0.3,0.1,0.6,0.2,0.9,0.2c0.5,0,0.8-0.1,1.1-0.3c0.3-0.2,0.4-0.5,0.4-0.9c0-0.3-0.1-0.6-0.3-0.8s-0.6-0.4-1.1-0.6c-0.3-0.1-0.5-0.2-0.6-0.3s-0.2-0.2-0.2-0.3c0-0.1,0.1-0.3,0.2-0.4c0.1-0.1,0.3-0.1,0.5-0.1c0.2,0,0.4,0.1,0.5,0.2c0.1,0.1,0.2,0.3,0.2,0.5h0.9c0-0.3-0.1-0.5-0.2-0.7s-0.3-0.4-0.6-0.5s-0.5-0.2-0.8-0.2c-0.3,0-0.6,0.1-0.8,0.2s-0.4,0.2-0.6,0.4c-0.1,0.2-0.2,0.4-0.2,0.6c0,0.4,0.2,0.8,0.7,1.1c0.2,0.1,0.4,0.2,0.7,0.3c0.3,0.1,0.5,0.2,0.6,0.3c0.1,0.1,0.2,0.2,0.2,0.4c0,0.2-0.1,0.3-0.2,0.4s-0.3,0.1-0.5,0.1c-0.6,0-0.8-0.2-0.8-0.7h-0.9c0,0.3,0.1,0.5,0.2,0.7S12.8,27.4,13,27.6z"></path><path d="M16,24.5v2.1c0,0.4,0.1,0.7,0.3,0.9s0.4,0.3,0.8,0.3c0.4,0,0.7-0.1,0.9-0.4l0,0.3h0.8v-3.2h-0.8v2.2c-0.1,0.2-0.3,0.3-0.6,0.3c-0.3,0-0.5-0.2-0.5-0.5v-2H16z"></path><path d="M20.2,23.2h-0.8v4.5h0.8l0-0.3c0.2,0.3,0.5,0.4,0.8,0.4c0.4,0,0.7-0.1,0.9-0.4s0.3-0.7,0.3-1.2v0c0-0.5-0.1-0.9-0.3-1.2c-0.2-0.3-0.5-0.4-0.9-0.4c-0.3,0-0.6,0.1-0.8,0.3V23.2z M20.8,25.1c0.2,0,0.4,0.1,0.5,0.2c0.1,0.1,0.2,0.4,0.2,0.7c0,0.3,0,0.5-0.1,0.6c-0.1,0.3-0.3,0.4-0.5,0.4c-0.3,0-0.5-0.1-0.6-0.3v-1.3C20.3,25.3,20.5,25.1,20.8,25.1z"></path><path d="M22.9,23.7v0.8h-0.5v0.6h0.5v1.7c0,0.6,0.3,0.9,0.9,0.9c0.2,0,0.3,0,0.5-0.1V27c-0.1,0-0.2,0-0.2,0c-0.1,0-0.2,0-0.3-0.1s-0.1-0.1-0.1-0.3v-1.6h0.5v-0.6h-0.5v-0.8H22.9z"></path><path d="M25.6,23.4c-0.1-0.1-0.2-0.1-0.3-0.1c-0.1,0-0.3,0-0.3,0.1s-0.1,0.2-0.1,0.3c0,0.1,0,0.2,0.1,0.3c0.1,0.1,0.2,0.1,0.3,0.1s0.3,0,0.3-0.1c0.1-0.1,0.1-0.2,0.1-0.3C25.7,23.6,25.7,23.5,25.6,23.4z"></path><rect x="24.8" y="24.5" width="0.8" height="3.2"></rect><path d="M26.5,23.7v0.8h-0.5v0.6h0.5v1.7c0,0.6,0.3,0.9,0.9,0.9c0.2,0,0.3,0,0.5-0.1V27c-0.1,0-0.2,0-0.2,0c-0.1,0-0.2,0-0.3-0.1s-0.1-0.1-0.1-0.3v-1.6h0.5v-0.6h-0.5v-0.8H26.5z"></path><rect x="28.4" y="23.2" width="0.8" height="4.5"></rect><path d="M31.4,27.7c0.3,0,0.5-0.1,0.7-0.2c0.2-0.1,0.4-0.2,0.5-0.4l-0.4-0.5c-0.2,0.2-0.4,0.4-0.8,0.4c-0.2,0-0.4-0.1-0.5-0.2s-0.2-0.3-0.2-0.5h2V26c0-0.5-0.1-0.9-0.4-1.2s-0.6-0.4-1-0.4c-0.3,0-0.5,0.1-0.8,0.2c-0.2,0.1-0.4,0.3-0.5,0.6c-0.1,0.3-0.2,0.5-0.2,0.9v0.1c0,0.5,0.1,0.9,0.4,1.1C30.6,27.6,31,27.7,31.4,27.7z M30.9,25.3c0.1-0.1,0.2-0.2,0.4-0.2c0.2,0,0.3,0.1,0.4,0.2s0.1,0.2,0.2,0.4v0.1h-1.2C30.8,25.6,30.8,25.4,30.9,25.3z"></path></g></svg>