<svg xmlns="http://www.w3.org/2000/svg" viewBox="0 0 48 48"><style type="text/css">.hap-icon-accent{fill:#EA4335;}</style><g><g><path class="hap-icon-accent" d="M11.2,20.2h2.4c1.2,0,2-0.3,2.6-0.9s0.8-1.4,0.8-2.3c0-0.9-0.3-1.7-0.8-2.2c-0.6-0.5-1.3-0.8-2.3-0.8c-0.9,0-1.6,0.2-2.2,0.7c-0.6,0.5-0.9,1.1-0.9,1.9H6.3c0-1.2,0.3-2.3,1-3.2c0.6-1,1.6-1.7,2.7-2.2s2.4-0.8,3.9-0.8c2.4,0,4.3,0.6,5.7,1.7s2.1,2.8,2.1,4.8c0,1.1-0.3,2-1,2.9c-0.6,0.9-1.5,1.6-2.5,2c1.3,0.5,2.3,1.2,2.9,2.1c0.6,0.9,1,2,1,3.3c0,2-0.7,3.7-2.2,4.9c-1.5,1.2-3.5,1.8-5.9,1.8c-2.3,0-4.2-0.6-5.6-1.8C6.7,31,6,29.4,6,27.4h4.6c0,0.9,0.3,1.6,1,2.1c0.6,0.5,1.4,0.8,2.4,0.8c1.1,0,1.9-0.3,2.6-0.9c0.6-0.6,0.9-1.3,0.9-2.3c0-2.3-1.3-3.4-3.8-3.4h-2.4V20.2z"></path><path class="hap-icon-accent" d="M40.2,33.7H24.4v-3.1l7.5-7.9c1-1.1,1.8-2.1,2.3-2.9c0.5-0.8,0.7-1.6,0.7-2.4c0-1-0.3-1.8-0.8-2.4s-1.3-0.9-2.2-0.9c-1,0-1.8,0.4-2.4,1.1s-0.9,1.6-0.9,2.8H24c0-1.4,0.3-2.7,1-3.8c0.7-1.2,1.6-2.1,2.8-2.7c1.2-0.7,2.6-1,4.2-1c2.4,0,4.2,0.6,5.5,1.7s2,2.7,2,4.8c0,1.1-0.3,2.3-0.9,3.5s-1.6,2.6-3,4.1L30.3,30h9.9V33.7z"></path></g></g></svg>