<svg xmlns="http://www.w3.org/2000/svg" viewBox="0 0 48 48"><style type="text/css">.mkcb-icon-accent{fill:#E53935;}</style><g><path d="M9.5,11h29c0.8,0,1.5-0.7,1.5-1.5C40,8.7,39.3,8,38.5,8h-29C8.7,8,8,8.7,8,9.5C8,10.3,8.7,11,9.5,11z"></path><path d="M38.5,37h-29C8.7,37,8,37.7,8,38.5C8,39.3,8.7,40,9.5,40h29c0.8,0,1.5-0.7,1.5-1.5C40,37.7,39.3,37,38.5,37z"></path></g><g><path class="mkcb-icon-accent" d="M38.5,22h-13c-0.8,0-1.5,0.7-1.5,1.5c0,0.8,0.7,1.5,1.5,1.5h13c0.8,0,1.5-0.7,1.5-1.5C40,22.7,39.3,22,38.5,22z"></path><path class="mkcb-icon-accent" d="M12,20c-2.2,0-4,1.8-4,4c0,2.2,1.8,4,4,4s4-1.8,4-4C16,21.8,14.2,20,12,20z"></path></g></svg>