<svg xmlns="http://www.w3.org/2000/svg" viewBox="0 0 48 48"><g><path d="M40.1,29.5H22.3c-0.8,0-1.5,0.7-1.5,1.5s0.7,1.5,1.5,1.5h17.8c0.8,0,1.5-0.7,1.5-1.5S40.9,29.5,40.1,29.5z"></path><path d="M22.3,18.2h17.8c0.8,0,1.5-0.7,1.5-1.5s-0.7-1.5-1.5-1.5H22.3c-0.8,0-1.5,0.7-1.5,1.5S21.5,18.2,22.3,18.2z"></path><path d="M13.1,28.6c0.2-0.6,0-1.6-0.4-2.2c-1-1.2-2.6-1-3.4-0.8c-0.6,0.2-1,0.4-1.4,0.6l0.2,2.2c0.4-0.4,1-0.8,1.6-1c0.6-0.2,1.2,0,1.4,0.2c0.4,0.6,0,1.6-0.4,2.2c-1,1.6-1.8,3.2-2.8,5h5.4v-2h-2C11.9,31.6,12.9,30,13.1,28.6z"></path><polygon points="10.1,14.2 10.1,20.8 12.1,20.8 12.1,11.4 7.7,12.8 8.5,14.8 "></polygon></g></svg>