<svg xmlns="http://www.w3.org/2000/svg" viewBox="0 0 640 512"><path d="M640,180v-66H451.8v45.8c-26.9-28.7-66.5-45.7-109.8-45.7c-38.7-0.5-76.1,14.4-104,41.3c-13.6,13.1-24.3,28.9-31.6,46.3c-0.7,1.7-1.2,3.4-1.9,5.2l-39.3-93.2h-50.2L0,397.3h75.2l16.1-41.2h98.1l16.2,41.3h79.4l-5.1-12.2c18.9,8.3,39.9,13,62.2,13c43.9,0,83-17,109.8-46v45.1h70.6V294.9h110.8v-64.3H522.4V180H640z M116.7,292.3l2.5-6.4h0l21.4-59.2l22.2,60.8l1.7,4.8H116.7z M418.8,278.5c-12,40.6-54.7,64.7-96.8,54.6c-42.1-10.1-68.5-50.8-59.7-92.2c8.7-41.4,49.4-68.6,92.2-61.7c17.5,2.4,33.7,10.7,45.7,23.7c8.3,8.6,14.6,18.9,18.2,30.3h33.3v45.3H418.8z"></path></svg>