<svg xmlns="http://www.w3.org/2000/svg" viewBox="0 0 384 512"><path d="M340.8,254.2h-61.9V142.1c0-26.5-21.6-48-48-48h-77.7c-26.5,0-48,21.5-48,48v112H43.3c-35.5,0-53.5,43-28.3,68.2l143,143.6 c18.8,18.8,49.2,18.8,68,0l143.1-143.5C394.2,297.3,376.4,254.2,340.8,254.2z M346.5,299.7L203.3,443.3c-6.3,6.3-16.4,6.3-22.7,0 l-143-143.6c-5-5-1.5-13.6,5.7-13.6h93.9v-144c0-8.8,7.2-16,16-16h77.7c8.8,0,16,7.2,16,16v144h93.9 C347.9,286.1,351.5,294.7,346.5,299.7z"/><path d="M372,32H12C5.4,32,0,37.4,0,44v8c0,6.6,5.4,12,12,12h360c6.6,0,12-5.4,12-12v-8C384,37.4,378.6,32,372,32z"/></svg>
