<svg xmlns="http://www.w3.org/2000/svg" viewBox="0 0 448 512"><g><path d="M338.9,74.2c3.8-3.8,1.1-10.3-4.3-10.3h-89.1l51.8,51.8L338.9,74.2z"></path><path class="st0" d="M214.4,313.5l-53.1-53.1l-4.3-4.2l4.3-4.3l53.1-53.1L150.6,135l-57.4,57.4l-59.5,59.5c-2.4,2.3-2.4,6.2,0,8.5l59.5,59.5l57.4,57.4L214.4,313.5z"></path><path class="st0" d="M297.4,396.5l-51.6,51.6h88.7c5.3,0,8-6.5,4.3-10.3L297.4,396.5z"></path><path class="st0" d="M414.2,251.9l-59.5-59.5l-67-67l-59.7-59.7c-1.1-1.1-2.5-1.7-4.1-1.7c-0.1,0-0.1,0-0.2,0H113.3c-5.3,0-8,6.5-4.2,10.3l51.2,51.2l63.7,63.7l62.8,62.7l4.2,4.3l-4.2,4.2L224,323.1l-63.7,63.7l-51,51c-3.8,3.8-1.1,10.3,4.2,10.3H224h0c1.6,0,3.1-0.6,4.2-1.8l59.5-59.5l67-67l59.5-59.5C416.6,258,416.6,254.2,414.2,251.9z"></path></g></svg>