<svg xmlns="http://www.w3.org/2000/svg" viewBox="0 0 496 512"><g><g><g><path d="M194,37.8l-5.6-22.5c-24.2,5.9-47.3,15.5-68.6,28.4l11.9,19.9c19.4-11.7,40.3-20.4,62.3-25.8Z"></path><path d="M55.6,139.7l-19.9-12c-12.9,21.3-22.5,44.5-28.4,68.7l22.5,5.6c5.4-21.9,14.1-42.9,25.8-62.3Z"></path><path d="M281.7,33.8l3.4-23c-24.6-3.7-49.6-3.7-74.3,0l3.4,23c22.3-3.4,45-3.4,67.4,0h.1Z"></path><path d="M23.2,256c0-11.3.8-22.5,2.5-33.7l-23-3.5c-3.7,24.6-3.7,49.7,0,74.3l23-3.4c-1.7-11.1-2.5-22.4-2.5-33.7Z"></path><path d="M114.7,75.1l-14-18.7c-20,14.8-37.7,32.4-52.4,52.4l18.7,14c13.4-18.2,29.5-34.2,47.6-47.6l.1-.1Z"></path><path d="M466.2,202l22.5-5.6c-5.9-24.2-15.5-47.3-28.4-68.6l-19.9,12c11.7,19.3,20.4,40.3,25.8,62.2h0Z"></path><path d="M376.3,43.6c-21.4-12.9-44.5-22.5-68.8-28.4l-5.6,22.5c21.9,5.4,42.9,14.1,62.3,25.8l12-19.9h.1Z"></path><path d="M140.6,425.8c31.4,20.2,68.8,31.9,108.9,31.9,111.3,0,201.6-90.2,201.6-201.6S360.8,54.6,249.5,54.6,47.9,144.9,47.9,256.2c0,42.426,11.1,75.6,30.4,106.5l-20.2,83.2,82.5-20.1h0Z"></path><path d="M428.9,122.7l18.7-14c-14.8-20-32.4-37.7-52.4-52.4l-14,18.7c18.2,13.4,34.2,29.5,47.6,47.6l.1.1Z"></path><path d="M440.4,372.3l19.9,12c12.9-21.4,22.5-44.5,28.4-68.8l-22.5-5.6c-5.4,22-14.1,43-25.8,62.4Z"></path><path d="M381.3,436.9l13.8,18.7c20-14.7,37.7-32.4,52.6-52.4l-18.7-14c-13.4,18.2-29.5,34.2-47.6,47.6l-.1.1Z"></path><path d="M302,474.2l5.6,22.5c24.2-6,47.3-15.6,68.6-28.5l-11.9-19.9c-19.3,11.7-40.3,20.4-62.2,25.8l-.1.1Z"></path><path d="M493.2,218.8l-23,3.5c1.7,11.1,2.5,22.4,2.5,33.7s-.8,22.5-2.5,33.7l23,3.4c3.7-24.6,3.7-49.7,0-74.3Z"></path><path d="M24.4,399l22.7,5.2,7.8-33.3c-11.3-19-19.8-39.5-25-61l-22.5,5.6c5.1,20.5,12.7,40.4,22.8,59l-5.7,24.5h-.1Z"></path><path d="M214.3,478.2l-3.4,23c24.6,3.7,49.6,3.7,74.3,0l-3.4-23c-22.3,3.4-45,3.4-67.4,0h-.1Z"></path><path d="M31,472.9l11.2-48-22.6-5.3-11.2,48c-1.4,6-.4,12.3,2.9,17.6,3.3,5.2,8.5,9,14.5,10.4,3.5.8,7.1.8,10.6,0l48-11.1-5.3-22.8-48,11.1-.1.1Z"></path><path d="M132.9,449.3l-33.3,7.8,5.3,22.7,24.4-5.7c18.6,10.1,38.4,17.8,59,22.8l5.6-22.5c-21.4-5.3-41.9-13.8-60.8-25.2h-.2v.1Z"></path></g></g></g></svg>