<svg xmlns="http://www.w3.org/2000/svg" viewBox="0 0 512 512"><style type="text/css">.st0{fill:#CCCCCC;}</style><path class="st0" d="M256,40c29.2,0,57.5,5.7,84.1,17c25.7,10.9,48.8,26.5,68.7,46.3c19.8,19.8,35.4,43,46.3,68.7c11.3,26.6,17,54.9,17,84.1s-5.7,57.5-17,84.1c-10.9,25.7-26.5,48.8-46.3,68.7c-19.8,19.8-43,35.4-68.7,46.3c-26.6,11.3-54.9,17-84.1,17s-57.5-5.7-84.1-17c-25.7-10.9-48.8-26.5-68.7-46.3c-19.8-19.8-35.4-43-46.3-68.7c-11.3-26.6-17-54.9-17-84.1s5.7-57.5,17-84.1c10.9-25.7,26.5-48.8,46.3-68.7c19.8-19.8,43-35.4,68.7-46.3C198.5,45.7,226.8,40,256,40 M256,8C119,8,8,119,8,256s111,248,248,248s248-111,248-248S393,8,256,8L256,8z"></path><path d="M460.1,373.8l-6.9-4c-5.5-3.2-7.6-10.2-4.7-15.9c33-64.8,31.2-142.7-5.4-206C406.6,84.6,340,44.1,267.3,40.3C261,40,256,34.7,256,28.3v-8c0-6.9,5.8-12.3,12.7-12c83.6,4.3,160.2,50.9,202.1,123.7c42.1,72.7,44.1,162.3,6,236.8C473.7,375,466.1,377.3,460.1,373.8L460.1,373.8z"></path></svg>