<svg xmlns="http://www.w3.org/2000/svg" viewBox="0 0 512 512"><g><path d="M464,32H48C21.5,32,0,53.5,0,80v352c0,26.5,21.5,48,48,48h416c26.5,0,48-21.5,48-48V80C512,53.5,490.5,32,464,32z M32,80c0-8.8,7.2-16,16-16h48v64H32V80z M480,432c0,8.8-7.2,16-16,16H48c-8.8,0-16-7.2-16-16V160h448V432z M480,128H128V64h336c8.8,0,16,7.2,16,16V128z"></path><path d="M271,282.8c-5.1,3.7-10.5,7.1-16.3,10.4c-9.8,5.5-19,11.7-27.7,18.6c-8.7,6.9-16.4,14.9-23,24c-6.6,9.1-11.8,19.5-15.6,31.4c-3.8,11.9-5.7,25.6-5.7,41.3h146.7v-38H228.8c2-6.4,5.1-12.1,9.2-17c4.1-4.9,9.3-9.7,15.8-14.4c6.5-4.6,14.3-9.7,23.6-15.2c9.4-5.5,17.8-11.3,25.4-17.4c7.6-6.1,13.6-13.3,18-21.7c4.4-8.3,6.6-18.7,6.6-31.2c0-11.8-2.7-22.4-8.2-31.9c-5.5-9.4-13.3-16.9-23.7-22.5c-10.3-5.6-22.8-8.3-37.5-8.3c-16.2,0-30.8,4.2-43.9,12.6c-13.1,8.4-22.5,19.6-28.2,33.7l35.3,16c3.4-7.8,8.1-14,14.1-18.4c6.1-4.4,13.8-6.6,23.1-6.6c9,0,16.1,2.4,21.5,7.1c5.3,4.7,8,11.1,8,19.2c0,6-1.6,11.3-4.7,15.9C280.2,275,276.1,279.1,271,282.8z"></path></g></svg>