<svg xmlns="http://www.w3.org/2000/svg" viewBox="0 0 48 48"><g><path d="M25.5,19.4l-0.3,0.3c-0.4,0.4-0.6,0.9-0.7,1.5c0.6,0.3,1.1,0.7,1.6,1.2c2.3,2.3,2.3,6.1,0,8.5l-4.7,4.7c-2.3,2.3-6.1,2.3-8.5,0c-2.3-2.3-2.3-6.1,0-8.5l2.9-2.9c-0.2-0.8-0.3-1.7-0.3-2.5l-4,4c-1.5,1.5-2.3,3.5-2.3,5.7c0,2.1,0.8,4.1,2.3,5.7c1.5,1.5,3.5,2.3,5.7,2.3c0,0,0,0,0,0c2.1,0,4.1-0.8,5.7-2.3l2.6-2.6c2.4-2.4,2.4-2.4,2.7-2.7c2.6-3.2,2.4-7.8-0.5-10.7C27,20.3,26.3,19.8,25.5,19.4z"></path><path d="M37.4,11.1c-1.6-1.6-3.6-2.3-5.7-2.3s-4.1,0.8-5.7,2.3l-2.6,2.6c-2.3,2.3-2.3,2.3-2.6,2.7c-2.6,3.2-2.4,7.8,0.5,10.7c0.6,0.6,1.3,1.1,2.1,1.5l0.3-0.3c0.4-0.4,0.6-0.9,0.7-1.5c-0.6-0.3-1.1-0.7-1.6-1.2c-2.3-2.3-2.3-6.1,0-8.5l4.7-4.7c2.3-2.3,6.1-2.3,8.5,0c2.3,2.3,2.3,6.1,0,8.5l-2.9,2.9c0.2,0.8,0.3,1.7,0.3,2.5l4-4c1.5-1.5,2.3-3.5,2.3-5.7C39.7,14.6,38.9,12.6,37.4,11.1z"></path></g></svg>