<svg xmlns="http://www.w3.org/2000/svg" viewBox="0 0 48 48"><style type="text/css">.hap-icon-accent{fill:#E53935;}</style><g><path d="M27.6,20.4c3.2,3.2,3.4,8.3,0.6,11.7c-0.4,0.5-0.2,0.2-5.3,5.4c-3.4,3.4-9,3.4-12.4,0c-3.4-3.4-3.4-9,0-12.4c2-2,3.2-3.2,4-4c0.5-0.5,1.3-0.1,1.3,0.5c0,0.8,0.1,1.6,0.3,2.4c0.1,0.3,0,0.5-0.2,0.7L13,27.5c-2,2-2.1,5.4,0,7.4c2,2,5.4,2.1,7.4,0l4.7-4.7c2-2,2-5.4,0-7.4c-0.4-0.4-0.9-0.8-1.4-1c-0.3-0.1-0.4-0.5-0.4-0.8c0.1-0.7,0.4-1.4,0.9-1.9l0.3-0.3c0.2-0.2,0.6-0.3,0.9-0.1C26.2,19.1,27,19.7,27.6,20.4L27.6,20.4L27.6,20.4z"></path><path class="hap-icon-accent" d="M37.4,10.6c-3.4-3.4-9-3.4-12.4,0c-5.1,5.1-4.9,4.9-5.3,5.4c-2.8,3.4-2.6,8.5,0.6,11.7c0.7,0.7,1.4,1.2,2.3,1.6c0.3,0.1,0.6,0.1,0.9-0.1l0.3-0.3c0.5-0.5,0.8-1.2,0.9-1.9c0-0.3-0.1-0.6-0.4-0.8c-0.5-0.3-1-0.6-1.4-1c-2-2-2-5.4,0-7.4l4.7-4.7c2.1-2.1,5.4-2,7.4,0c2.1,2.1,2,5.4,0,7.4l-2.9,2.9c-0.2,0.2-0.3,0.4-0.2,0.7c0.2,0.8,0.3,1.6,0.3,2.4c0,0.7,0.8,1,1.3,0.5c0.7-0.7,1.9-1.9,4-4C40.9,19.5,40.9,14,37.4,10.6L37.4,10.6L37.4,10.6z"></path></g></svg>