<svg xmlns="http://www.w3.org/2000/svg" viewBox="0 0 48 48"><g><path d="M42.3,16.7c-0.7-1-1.9-1.7-3.3-1.7H7c-2.2,0-4,1.8-4,4v8c0,1.4,0.7,2.6,1.7,3.3C5.4,31.3,6.6,32,8,32h32c2.2,0,4-1.8,4-4v-8C44,18.6,43.3,17.4,42.3,16.7z M5,19c0-1.1,0.9-2,2-2h32c1.1,0,2,0.9,2,2v8c0,1.1-0.9,2-2,2H7c-1.1,0-2-0.9-2-2V19z"></path><path d="M14,24.7c0.3-0.2,0.4-0.5,0.4-0.9c0-0.2-0.1-0.4-0.2-0.6s-0.3-0.3-0.5-0.3c0.2-0.1,0.3-0.2,0.4-0.4s0.2-0.3,0.2-0.6c0-0.4-0.1-0.7-0.4-0.9s-0.7-0.3-1.2-0.3h-1.5V25h1.7C13.3,25,13.7,24.9,14,24.7z M12.1,21.5h0.6c0.2,0,0.4,0,0.5,0.1s0.2,0.2,0.2,0.4c0,0.3-0.2,0.5-0.7,0.5h-0.7V21.5z M12.1,24.3v-1.2h0.8c0.4,0,0.6,0.2,0.6,0.6c0,0.2-0.1,0.3-0.2,0.4c-0.1,0.1-0.3,0.1-0.5,0.1H12.1z"></path><path d="M16.8,25.1c0.5,0,0.9-0.1,1.2-0.4s0.4-0.6,0.4-1.1v-2.8h-0.9v2.8c0,0.5-0.3,0.8-0.8,0.8c-0.2,0-0.4-0.1-0.6-0.2c-0.1-0.1-0.2-0.3-0.2-0.6v-2.8h-0.9v2.8c0,0.5,0.2,0.8,0.4,1.1S16.3,25.1,16.8,25.1z"></path><polygon points="20.4,25 21.3,25 21.3,21.5 22.6,21.5 22.6,20.7 19.1,20.7 19.1,21.5 20.4,21.5 "></polygon><polygon points="24.3,25 25.2,25 25.2,21.5 26.5,21.5 26.5,20.7 23,20.7 23,21.5 24.3,21.5 "></polygon><path d="M27.9,24.8c0.3,0.2,0.6,0.3,0.9,0.3c0.4,0,0.7-0.1,1-0.3c0.3-0.2,0.5-0.4,0.6-0.7s0.2-0.7,0.2-1.1v-0.2c0-0.4-0.1-0.8-0.2-1.1c-0.2-0.3-0.4-0.6-0.6-0.7c-0.3-0.2-0.6-0.3-0.9-0.3s-0.7,0.1-0.9,0.3c-0.3,0.2-0.5,0.4-0.6,0.7C27.1,22,27,22.4,27,22.8V23c0,0.4,0.1,0.8,0.2,1.1C27.4,24.4,27.6,24.6,27.9,24.8z M27.9,22.8c0-0.4,0.1-0.8,0.2-1s0.4-0.3,0.7-0.3c0.3,0,0.5,0.1,0.7,0.3s0.2,0.6,0.2,1V23c0,0.4-0.1,0.8-0.2,1s-0.4,0.3-0.7,0.3c-0.3,0-0.5-0.1-0.7-0.4s-0.2-0.6-0.2-1V22.8z"></path><polygon points="32.3,22.2 34,25 34.9,25 34.9,20.7 34,20.7 34,23.6 32.3,20.7 31.5,20.7 31.5,25 32.3,25 "></polygon></g></svg>