<svg xmlns="http://www.w3.org/2000/svg" version="1.1" viewBox="0 0 576 576"><style>.dm-icon{fill:#9ca1a7;}</style><g><g><path class="dm-icon" d="M549.7,156.1c-6.3-23.7-24.8-42.3-48.3-48.6-42.6-11.5-213.4-11.5-213.4-11.5,0,0-170.8,0-213.4,11.5-23.5,6.3-42,24.9-48.3,48.6-11.4,42.9-11.4,132.3-11.4,132.3,0,0,0,89.4,11.4,132.3,6.3,23.6,24.8,41.5,48.3,47.8,42.6,11.5,213.4,11.5,213.4,11.5,0,0,170.8,0,213.4-11.5,23.5-6.3,42-24.2,48.3-47.8,11.4-42.9,11.4-132.3,11.4-132.3,0,0,0-89.4-11.4-132.3ZM232.1,369.6v-162.4l142.7,81.2-142.7,81.2h0Z"/></g></g></svg>