<svg xmlns="http://www.w3.org/2000/svg" viewBox="0 0 48 48"><g><path d="M10,9c-3.3,0-6,2.7-6,6s2.7,6,6,6s6-2.7,6-6S13.3,9,10,9z M10,19c-2.2,0-4-1.8-4-4s1.8-4,4-4s4,1.8,4,4S12.2,19,10,19z"></path><path d="M21,15h22c0.6,0,1-0.4,1-1s-0.4-1-1-1H21c-0.6,0-1,0.4-1,1S20.4,15,21,15z"></path><path d="M43,37H21c-0.6,0-1,0.4-1,1s0.4,1,1,1h22c0.6,0,1-0.4,1-1S43.6,37,43,37z"></path><path d="M43,31H21c-0.6,0-1,0.4-1,1s0.4,1,1,1h22c0.6,0,1-0.4,1-1S43.6,31,43,31z"></path><path d="M43,19H21c-0.6,0-1,0.4-1,1s0.4,1,1,1h22c0.6,0,1-0.4,1-1S43.6,19,43,19z"></path><path d="M43,25H21c-0.6,0-1,0.4-1,1s0.4,1,1,1h22c0.6,0,1-0.4,1-1S43.6,25,43,25z"></path></g></svg>