<svg xmlns="http://www.w3.org/2000/svg" viewBox="0 0 48 48"><style type="text/css">.mkcb-icon-accent{fill:#EA4335;}</style><g><path class="mkcb-icon-accent" d="M12,14C12,14,12,14,12,14C12.1,14,12.1,14,12,14h25.1c0.8,0,1.5-0.7,1.5-1.5S37.9,11,37.1,11H15c0-1.7-1.3-3-3-3c-1.7,0-3,1.3-3,3S10.3,14,12,14z"></path><path d="M37.1,20H15c0-1.7-1.3-3-3-3c-1.7,0-3,1.3-3,3s1.3,3,3,3c0,0,0,0,0,0c0,0,0,0,0,0h25c0.8,0,1.5-0.7,1.5-1.5S37.9,20,37.1,20z"></path><path d="M37.1,29H15c0-1.7-1.3-3-3-3c-1.7,0-3,1.3-3,3s1.3,3,3,3c0,0,0,0,0,0c0,0,0,0,0,0h25c0.8,0,1.5-0.7,1.5-1.5S37.9,29,37.1,29z"></path><path d="M37.1,38H15c0-1.7-1.3-3-3-3c-1.7,0-3,1.3-3,3s1.3,3,3,3c0,0,0,0,0,0c0,0,0,0,0,0h25c0.8,0,1.5-0.7,1.5-1.5S37.9,38,37.1,38z"></path></g></svg>