<svg xmlns="http://www.w3.org/2000/svg" viewBox="0 0 48 48"><g><path d="M38,4H14c-2.2,0-4,1.8-4,4v8c-2.2,0-4,1.8-4,4v8c0,2.2,1.8,4,4,4v8c0,2.2,1.8,4,4,4h24c2.2,0,4-1.8,4-4V8C42,5.8,40.2,4,38,4z M8,28v-8c0-1.1,0.9-2,2-2h24c1.1,0,2,0.9,2,2v8c0,1.1-0.9,2-2,2H10C8.9,30,8,29.1,8,28z M40,40c0,1.1-0.9,2-2,2H14c-1.1,0-2-0.9-2-2v-8h22c2.2,0,4-1.8,4-4v-8c0-2.2-1.8-4-4-4H12V8c0-1.1,0.9-2,2-2h24c1.1,0,2,0.9,2,2V40z"></path><path d="M11.5,28.3c0.5,0.2,1.1,0.4,1.8,0.4c0.9,0,1.7-0.2,2.3-0.6s0.8-1,0.8-1.7c0-0.7-0.2-1.2-0.7-1.7s-1.2-0.8-2.2-1.1c-0.5-0.2-1-0.3-1.2-0.5s-0.4-0.4-0.4-0.7c0-0.3,0.1-0.5,0.4-0.7s0.6-0.3,1-0.3c0.4,0,0.8,0.1,1,0.3s0.4,0.5,0.4,0.9h1.8c0-0.5-0.1-1-0.4-1.4s-0.6-0.7-1.1-0.9s-1-0.3-1.6-0.3c-0.6,0-1.2,0.1-1.6,0.3s-0.9,0.5-1.1,0.8s-0.4,0.8-0.4,1.2c0,0.9,0.5,1.6,1.5,2.1c0.4,0.2,0.8,0.4,1.4,0.6s1,0.4,1.3,0.6s0.4,0.4,0.4,0.8c0,0.3-0.1,0.5-0.4,0.7s-0.6,0.3-1,0.3c-1.1,0-1.7-0.5-1.7-1.4H9.8c0,0.6,0.1,1,0.4,1.5S10.9,28,11.5,28.3z"></path><polygon points="22,28.5 25,20 23.1,20 21.1,26.4 19.2,20 17.3,20 20.2,28.5 "></polygon><path d="M27.7,28.1c0.6,0.3,1.2,0.5,1.9,0.5c0.7,0,1.3-0.1,1.9-0.3s1-0.5,1.3-0.9V24h-3.4v1.3h1.6v1.5c-0.3,0.3-0.8,0.4-1.4,0.4c-0.7,0-1.2-0.2-1.5-0.7s-0.5-1.1-0.5-2V24c0-0.9,0.2-1.6,0.5-2s0.8-0.7,1.4-0.7c0.5,0,0.8,0.1,1.1,0.3s0.4,0.6,0.5,1.1h1.7c-0.1-0.9-0.4-1.6-1-2.1s-1.4-0.7-2.4-0.7c-0.7,0-1.4,0.2-1.9,0.5s-1,0.8-1.2,1.4S26,23.1,26,24v0.6c0,0.8,0.2,1.5,0.5,2.2S27.2,27.8,27.7,28.1z"></path></g></svg>