<svg xmlns="http://www.w3.org/2000/svg" viewBox="0 0 48 48"><style type="text/css">.mkcb-icon-accent{fill:#EA4335;}</style><g><path class="mkcb-icon-accent" d="M22.3,23c0-1.1-0.4-2.1-1.2-2.9c-0.8-0.8-2-1.4-3.8-1.9c-0.9-0.3-1.6-0.6-2.1-0.9c-0.5-0.3-0.7-0.7-0.7-1.2c0-0.5,0.2-0.9,0.6-1.2c0.4-0.3,1-0.5,1.7-0.5c0.8,0,1.4,0.2,1.8,0.6c0.4,0.4,0.6,0.9,0.6,1.6h3c0-0.9-0.2-1.7-0.7-2.4c-0.5-0.7-1.1-1.2-1.9-1.6c-0.8-0.4-1.8-0.6-2.8-0.6c-1,0-2,0.2-2.8,0.5c-0.8,0.3-1.5,0.8-1.9,1.5c-0.4,0.6-0.7,1.3-0.7,2.1c0,1.5,0.8,2.7,2.5,3.6c0.6,0.3,1.4,0.7,2.5,1c1,0.3,1.8,0.7,2.2,1c0.4,0.3,0.6,0.7,0.6,1.3c0,0.5-0.2,0.9-0.6,1.2c-0.4,0.3-1,0.4-1.7,0.4c-1.9,0-2.9-0.8-2.9-2.4h-3c0,0.9,0.2,1.8,0.7,2.5c0.5,0.7,1.2,1.3,2.1,1.7s2,0.6,3.1,0.6c1.6,0,2.9-0.4,3.9-1.1C21.8,25.3,22.3,24.3,22.3,23z"></path><polygon class="mkcb-icon-accent" points="29.7,23.7 34.8,9 31.4,9 28.1,20.1 24.8,9 21.4,9 26.5,23.7 "></polygon><path class="mkcb-icon-accent" d="M24.6,28.7c0.5-0.8,1.3-1.2,2.4-1.2c0.8,0,1.4,0.2,1.9,0.6c0.5,0.4,0.8,1,0.9,1.8h2.9c-0.2-1.6-0.8-2.8-1.7-3.6c-1-0.8-2.3-1.2-4.1-1.2c-1.3,0-2.3,0.3-3.3,0.9c-0.9,0.6-1.6,1.4-2.1,2.5c-0.5,1.1-0.7,2.3-0.7,3.8v1c0,1.4,0.3,2.7,0.8,3.7c0.5,1.1,1.3,1.9,2.2,2.4c1,0.6,2.1,0.8,3.3,0.8c1.2,0,2.3-0.2,3.3-0.5c1-0.4,1.8-0.9,2.3-1.5v-5.9h-5.8v2.2h2.8v2.5c-0.5,0.5-1.3,0.7-2.4,0.7c-1.1,0-2-0.4-2.6-1.2c-0.6-0.8-0.9-2-0.9-3.5v-0.9C23.8,30.6,24.1,29.5,24.6,28.7z"></path></g></svg>