<svg version="1.1" xmlns="http://www.w3.org/2000/svg" xmlns:xlink="http://www.w3.org/1999/xlink" viewBox="0 0 512 512"><style type="text/css">.icon-fill-color{fill:#e61e29;}</style><path class="icon-fill-color" d="M8,256c0,137,111,248,248,248s248-111,248-248S393,8,256,8S8,119,8,256z M256,40c118.7,0,216,96.1,216,216c0,118.7-96.1,216-216,216c-118.7,0-216-96.1-216-216C40,137.3,136.1,40,256,40z M268.5,132.5l115.1,115c4.7,4.7,4.7,12.3,0,17l-115.1,115c-4.7,4.7-12.3,4.7-17,0l-6.9-6.9c-4.7-4.7-4.7-12.5,0.2-17.1l85.6-82.5H140c-6.6,0-12-5.4-12-12v-10c0-6.6,5.4-12,12-12h190.3l-85.6-82.5c-4.8-4.7-4.9-12.4-0.2-17.1l6.9-6.9C256.2,127.8,263.8,127.8,268.5,132.5L268.5,132.5z"/></svg>