<svg xmlns="http://www.w3.org/2000/svg" viewBox="0 0 48 48"><style type="text/css">.hap-icon-accent{fill:#EA4335;}</style><path class="hap-icon-accent" d="M38,22c4.4,0,8-3.6,8-8c0-4.4-3.6-8-8-8c-4.4,0-8,3.6-8,8C30,18.4,33.6,22,38,22L38,22z"></path><path d="M41,21.4V36c0,0.6-0.4,1-1,1H8.1l23.5-18.3c-0.2-0.3-0.4-0.5-0.5-0.8L7.1,36.5C7.1,36.3,7,36.2,7,36V12c0-0.6,0.4-1,1-1h22.6c0.5-1.2,1.2-2.2,2.1-3H8c-2.2,0-4,1.8-4,4v24c0,2.2,1.8,4,4,4h32c2.2,0,4-1.8,4-4V19.3C43.2,20.2,42.2,20.9,41,21.4z"></path></svg>