<svg xmlns="http://www.w3.org/2000/svg" version="1.1" viewBox="0 0 48 48"><g><g><g><path d="M40,8H8c-2.2,0-4,1.8-4,4v24c0,2.2,1.8,4,4,4h32c2.2,0,4-1.8,4-4V12c0-2.2-1.8-4-4-4ZM41,36c0,.6-.4,1-1,1H8c-.6,0-1-.4-1-1V12c0-.6.4-1,1-1h32c.6,0,1,.4,1,1v24Z"/><path d="M29.5,22.3c0,0,0,.4,0,.5,0,.3,0,.7,0,1,0,.1,0,.3,0,.4,0,0,.1,0,.1,0,.1,0,.2,0,.4,0,.1,0,.3,0,.4-.1,0,0,0,0,0,0,0,0,0,0,0-.1,0,0,0,0,0,0,0,0-.2,0-.2,0,0,0-.2,0-.3,0,0-.2,0-.3,0-.5.1,0,.4,0,.4-.2s0-.1-.1-.1-.2,0-.3,0,0,0,0,0c0,0,0-.1,0-.2s0-.2,0-.3h0c0,0,0-.1,0-.2.2,0,.3,0,.5,0,0,0,0,0,0-.1,0,0,0-.1-.1-.1-.1,0-.5,0-.6,0,0,0,0,0,0,0Z"/><path d="M28.9,24c0,0,0,.2.1.2,0,0,0,0,0,0,0,0,0,0,0,0,0,0,0,0,0-.2,0-.1,0-1.3,0-1.4,0,0,0-.2,0-.3s0,0,0,0c0,0,0,0-.1,0-.1,0-.2,0-.2.2s0,.1,0,.2c0,.1,0,.3,0,.4h0c-.2.1-.3.2-.4.2,0,0,0,0,0,0,0-.2-.1-.6-.1-.9,0,0-.1,0-.2,0-.1,0-.2,0-.2.2,0,.3.3,1.8.5,1.9,0,0,0,0,0,0,0,0,.2,0,.2,0,0,0,0,0,0,0,0,0-.1-.5-.1-.6.1,0,.2,0,.4,0,0,.2,0,.4,0,.6Z"/><path d="M23.2,17.6l1.3,5.3c6.3-1.4,5.8-6.3,3.7-7.3-2.1-1-7.2.1-7.2.1l1,2.1,1.2-.2Z"/><path d="M27.6,22.7s-.2-.1-.2-.1c-.2,0-.4.2-.6.3-.2.2-.2.5-.2.7,0,.2,0,.4.2.6.1.2.4.3.6.2.1,0,.4,0,.4-.2,0-.2-.4,0-.6-.2-.1,0-.2-.3-.2-.5,0-.7.6-.7.6-.9Z"/><path d="M32.5,22.5c1.6,0,2.8-1.1,2.8-2.6s-1.3-2.6-2.8-2.6-2.8,1.1-2.8,2.6,1.3,2.6,2.8,2.6Z"/><polygon points="37.1 18.5 36 15.1 34.8 17.2 36 19.4 37.1 18.5"/><polygon points="23.3 25.4 22.7 32.1 24.2 32.1 25.3 25.3 23.3 25.4"/><polygon points="21.3 24 21.2 22.4 21.7 22.3 22.6 24.8 24.3 24.4 21.8 18.3 19.6 18.3 19.9 23.9 21.3 24"/><polygon points="28.9 25.1 28.9 28.7 27.4 24.6 25.8 25.1 24.9 32.2 26.3 32.7 27.1 29.7 29.6 32.9 31.2 32.5 30.4 25.1 28.9 25.1"/><path d="M37,26.4l-2.5,1.4-.4.9h1.5c0,.2,0,1-.4,1.3-.2.1-.4.2-.7,0-.5-.2-1.1-.9-1.3-2.2-.4-2.2,0-2.7.1-2.8,0,0,.2,0,.3,0,.5.3.9.6.9.6h0c0,0,1.2-1.2,1.2-1.2h0c0-.2-2-2-3.3-1.1-1.2.9-1.6,3-1,5.6.3,1.5,1.4,2.6,2.6,2.9.2,0,.4,0,.6,0,.7,0,1.4-.3,1.9-.9,1.6-1.9.5-4.5.5-4.5h0Z"/><polygon points="20.9 28.8 19.9 26.6 19.2 26.7 19.1 29.2 18.6 25.6 17.2 25.6 17.5 31.7 19.8 32.1 20.1 29.7 20.5 32.1 22 32.1 22.6 25.6 20.9 25.9 20.9 28.8"/><path d="M15.8,28.1c-.6-.3-1.9-.7-2-1.1-.2-.7,1-.3,1.5,0,.4.2.8.3.8.3l.6-1.3s-1.4-.8-2.5-.9c-1.4-.2-2.3,1.1-2.1,2.1.2,1,2,1.5,2.5,1.8.5.3.4.9.2,1-1.4.4-3.1-1.8-3.1-1.8l-1.1,1.5s1.3,1.9,4,2c2.7,0,2.4-1.7,2.3-2.2,0-.5-.5-1-1.1-1.3Z"/><polygon points="14.7 20 14.9 23.2 15.8 23.4 16.7 21.2 17.2 24.9 19.4 24.6 18.7 16.3 16.6 16.3 16 19.3 15.6 16.3 13.2 16.3 12.1 24.6 14.1 24.2 14.7 20"/></g></g></g></svg>