<svg xmlns="http://www.w3.org/2000/svg" version="1.1" viewBox="0 0 48 48"><g><g><g><path d="M40,40H8c-2.2,0-4-1.8-4-4V12c0-2.2,1.8-4,4-4h32c2.2,0,4,1.8,4,4v24c0,2.2-1.8,4-4,4ZM8,10c-1.1,0-2,.9-2,2v24c0,1.1.9,2,2,2h32c1.1,0,2-.9,2-2V12c0-1.1-.9-2-2-2H8Z"/><path d="M37.3,18.9l1.3-1-1.2-3.8-1.3,2.3,1.3,2.5h0ZM36.6,19.4c0-1.6-1.4-2.9-3.2-2.9s-3.2,1.3-3.2,2.9,1.4,2.9,3.2,2.9,3.2-1.3,3.2-2.9h0ZM30.9,21.9c-.2,0-.6,0-.7,0,0,0,0,0-.1.1,0,0,0,.4,0,.5,0,.4,0,.7,0,1.1,0,.1,0,.4.1.5,0,0,.1,0,.2,0,.1,0,.3,0,.4,0,.1,0,.3,0,.4-.1,0,0,0,0,0-.1,0,0,0-.1,0-.2,0,0,0,0,0,0,0,0-.2,0-.3,0,0,0-.2,0-.3,0,0-.2,0-.4,0-.5.1,0,.5,0,.5-.3s0-.2-.1-.2-.2,0-.3,0,0,0,0,0c0,0,0-.1,0-.2s0-.2,0-.3h0c0-.1,0-.1,0-.2.2,0,.4,0,.5,0,0,0,0,0,0-.1,0-.1,0-.1-.2-.1h0ZM28.7,14.6c-2.3-1.1-8,.1-8,.1l1.1,2.3,1.3-.3,1.4,5.9c6.9-1.6,6.4-6.9,4.1-8.1h0ZM21.6,17.7h-2.5l.4,6.3h1.5c0,0,0-1.7,0-1.7h.6s1,2.7,1,2.7l1.9-.5-2.8-6.7h0ZM16.4,25l2.5-.3-.8-9.2h-2.3l-.6,3.4-.5-3.4h-2.6l-1.2,9.2,2.2-.4.7-4.8.2,3.6,1,.2,1.1-2.4.5,4.1h0ZM13.7,30.5c-1.6.5-3.5-2-3.5-2l-1.2,1.7s1.5,2.1,4.5,2.2c3,0,2.6-1.9,2.5-2.5,0-.5-.6-1.1-1.2-1.4-.7-.4-2.1-.8-2.2-1.2-.2-.7,1.1-.3,1.6,0,.5.2.9.4.9.4l.6-1.5s-1.5-.8-2.8-1c-1.5-.2-2.6,1.2-2.3,2.3.2,1.1,2.2,1.7,2.8,2,.6.3.5,1,.2,1.1h0ZM18,25.8h-1.6s.4,6.8.4,6.8l2.5.4.4-2.6.4,2.6h1.7l.6-7.2-1.9.4v3.2c0,0-1.1-2.5-1.1-2.5h-.7c0,.1-.1,2.9-.1,2.9l-.5-4h0ZM23.3,25.5l-.7,7.4h1.7l1.2-7.5h-2.2ZM27.6,24c-.1,0-.2-.4-.2-.5,0-.7.7-.8.7-1,0,0-.2-.2-.3-.1-.2,0-.5.2-.6.4-.2.2-.2.6-.2.8,0,.2,0,.5.2.7.1.2.5.3.7.3.1,0,.4,0,.4-.3,0-.2-.5,0-.7-.2h0ZM29.8,24c0-.2,0-1.5,0-1.6,0,0,0-.2,0-.3s0,0,0-.1c0,0,0-.1-.1-.1-.1,0-.3,0-.3.2s0,.1,0,.2c0,.2,0,.3,0,.5h0c-.2.1-.3.2-.5.2,0,0,0,0,0,0,0-.3-.1-.7-.2-1,0,0-.1-.1-.2-.1-.1,0-.2,0-.2.2,0,.3.3,2,.5,2.1,0,0,0,0,.1,0,0,0,.2,0,.3-.1,0,0,0,0,0,0,0,0-.1-.6-.2-.7.1,0,.3,0,.4,0,0,.2,0,.4,0,.7,0,0,0,.2.1.2,0,0,0,0,0,0,0,0,0,0,.1,0,0,0,.1,0,.1-.2h0ZM26,25.3l-1,7.8,1.6.6.8-3.3,2.8,3.5,1.8-.4-.9-8.2h-1.7v4s-1.7-4.5-1.7-4.5l-1.7.6h0ZM32.3,29.5c.4,1.6,1.5,2.9,2.9,3.2.2,0,.5,0,.7,0,.8,0,1.5-.4,2.1-1,1.8-2.1.5-5,.5-5h0c0-.1-2.8,1.4-2.8,1.4l-.5,1h1.6c0,.3,0,1.1-.5,1.5-.2.2-.5.2-.8,0-.5-.2-1.2-1-1.5-2.4-.4-2.5,0-3,.1-3.1.1,0,.2,0,.4,0,.6.4,1,.7,1,.7h0c0,0,1.3-1.3,1.3-1.3h0c0-.2-2.2-2.2-3.6-1.2-1.4,1-1.8,3.3-1.1,6.2h0Z"/></g></g></g></svg>