<svg xmlns="http://www.w3.org/2000/svg" viewBox="0 0 48 48"><style type="text/css">.hap-icon-accent{fill:#EA4335;}</style><g><g><g><path d="M40,40H8c-2.2,0-4-1.8-4-4V12c0-2.2,1.8-4,4-4h32c2.2,0,4,1.8,4,4v24C44,38.2,42.2,40,40,40z M8,11c-0.6,0-1,0.4-1,1v24c0,0.6,0.4,1,1,1h32c0.6,0,1-0.4,1-1V12c0-0.6-0.4-1-1-1H8z"></path></g></g><g><path class="hap-icon-accent" d="M13.9,23.6l5-3.3c0.3-0.2,0.6-0.6,0.6-1c0.1-0.4,0-0.8-0.2-1.1c-0.2-0.3-0.6-0.6-1-0.6c-0.4-0.1-0.8,0-1.1,0.2l-5,3.3c-1.1,0.7-1.7,1.8-1.7,2.9c0,1.1,0.6,2.2,1.7,2.9l5,3.3c0.2,0.2,0.5,0.3,0.8,0.3c0.5,0,1-0.2,1.2-0.7c0.5-0.7,0.3-1.6-0.4-2.1l-5-3.3c-0.3-0.2-0.4-0.4-0.4-0.4C13.5,23.9,13.6,23.8,13.9,23.6z"></path><path class="hap-icon-accent" d="M35.8,21.1l-5-3.3c-0.3-0.2-0.7-0.3-1.1-0.2c-0.4,0.1-0.7,0.3-1,0.6c-0.2,0.3-0.3,0.7-0.2,1.1c0.1,0.4,0.3,0.7,0.6,1l5,3.3c0.3,0.2,0.4,0.4,0.4,0.4c0,0.1-0.1,0.2-0.4,0.4l-5,3.3c-0.7,0.5-0.9,1.4-0.4,2.1c0.3,0.4,0.7,0.7,1.2,0.7c0.3,0,0.6-0.1,0.8-0.3l5-3.3c1.1-0.7,1.7-1.8,1.7-2.9C37.5,22.9,36.9,21.8,35.8,21.1z"></path></g></g></svg>