<svg xmlns="http://www.w3.org/2000/svg" viewBox="0 0 48 48"><g><path d="M12,14c1.1,0,2.1-0.6,2.6-1.5h22.5c0.6,0,1-0.4,1-1s-0.4-1-1-1H14.9C14.7,9.1,13.5,8,12,8c-1.7,0-3,1.3-3,3S10.3,14,12,14z"></path><path d="M37.1,19.5H14.9C14.7,18.1,13.5,17,12,17c-1.7,0-3,1.3-3,3s1.3,3,3,3c1.1,0,2.1-0.6,2.6-1.5h22.5c0.6,0,1-0.4,1-1S37.6,19.5,37.1,19.5z"></path><path d="M37.1,28.5H14.9C14.7,27.1,13.5,26,12,26c-1.7,0-3,1.3-3,3s1.3,3,3,3c1.1,0,2.1-0.6,2.6-1.5h22.5c0.6,0,1-0.4,1-1S37.6,28.5,37.1,28.5z"></path><path d="M37.1,37.5H14.9C14.7,36.1,13.5,35,12,35c-1.7,0-3,1.3-3,3s1.3,3,3,3c1.1,0,2.1-0.6,2.6-1.5h22.5c0.6,0,1-0.4,1-1S37.6,37.5,37.1,37.5z"></path></g></svg>