<svg xmlns="http://www.w3.org/2000/svg" viewBox="0 0 48 48"><style type="text/css">.st0{fill:#ED6608;}</style><g><path d="M40,8H8c-2.2,0-4,1.8-4,4v24c0,2.2,1.8,4,4,4h32c2.2,0,4-1.8,4-4V12C44,9.8,42.2,8,40,8z M41,36c0,0.6-0.4,1-1,1H8c-0.6,0-1-0.4-1-1V12c0-0.6,0.4-1,1-1h32c0.6,0,1,0.4,1,1V36z"></path><path d="M37.7,28.1c-0.2-0.2-0.4-0.3-0.7-0.4c-0.3-0.1-0.7-0.2-1.1-0.2c-0.5,0-1,0-1.3,0.1c-0.4,0.1-0.7,0.2-1,0.3v5.7h1.4v-5.1c0.1-0.1,0.3-0.1,0.4-0.1c0.1,0,0.3,0,0.5,0c0.2,0,0.4,0,0.5,0.1c0.1,0.1,0.2,0.1,0.3,0.2c0.1,0.1,0.1,0.2,0.2,0.3c0,0.1,0,0.2,0,0.4v4.3h1.4v-4.3c0-0.2,0-0.5-0.1-0.7C38,28.5,37.9,28.3,37.7,28.1z"></path><path d="M25.8,27.6c-0.3,0-0.5,0-0.8,0.1c-0.2,0-0.4,0.1-0.6,0.1c-0.2,0.1-0.3,0.1-0.5,0.2v5.7h1.4v-5.1c0.2-0.1,0.3-0.1,0.6-0.2c0.2,0,0.5,0,0.7,0.1l0.3-1C26.4,27.6,26.1,27.6,25.8,27.6z"></path><rect x="21.1" y="27.7" width="1.4" height="6"></rect><path d="M18.9,28c-0.2-0.2-0.4-0.3-0.7-0.4c-0.3-0.1-0.6-0.1-0.9-0.1c-0.5,0-0.9,0.1-1.2,0.2c-0.4,0.1-0.6,0.2-0.8,0.3l0.3,0.8c0.2-0.1,0.4-0.2,0.7-0.3c0.3-0.1,0.5-0.1,0.8-0.1c0.2,0,0.3,0,0.5,0c0.1,0,0.3,0.1,0.4,0.2c0.1,0.1,0.2,0.2,0.2,0.3c0.1,0.1,0.1,0.3,0.1,0.5v0.3c-0.5,0-0.9,0.1-1.3,0.2c-0.4,0.1-0.8,0.2-1.1,0.4c-0.3,0.2-0.5,0.4-0.7,0.6C15,31.2,15,31.6,15,32c0,0.6,0.2,1,0.6,1.3c0.4,0.3,1,0.5,1.8,0.5c0.5,0,0.9,0,1.3-0.1c0.4-0.1,0.7-0.2,0.9-0.3v-3.7c0-0.4-0.1-0.7-0.2-1C19.3,28.4,19.1,28.2,18.9,28z M17.9,33c-0.1,0-0.3,0-0.4,0c-0.4,0-0.7-0.1-0.9-0.3c-0.2-0.2-0.3-0.5-0.3-0.9c0-0.3,0-0.5,0.1-0.7c0.1-0.2,0.2-0.3,0.4-0.4c0.2-0.1,0.4-0.2,0.7-0.3c0.3-0.1,0.5-0.1,0.9-0.2v2.5h0C18.2,32.9,18.1,33,17.9,33z"></path><path d="M31.7,28.3c-0.4-0.5-1-0.8-1.8-0.8c-0.4,0-0.7,0.1-1.1,0.2c-0.3,0.1-0.6,0.3-0.8,0.6c-0.2,0.3-0.4,0.6-0.5,1c-0.1,0.4-0.2,0.8-0.2,1.3c0,1,0.3,1.8,0.8,2.3c0.5,0.5,1.2,0.8,2,0.8c0.5,0,0.9,0,1.2-0.1c0.3-0.1,0.6-0.2,0.8-0.3l-0.3-0.9c-0.2,0.1-0.4,0.2-0.6,0.2c-0.2,0.1-0.5,0.1-0.9,0.1c-1,0-1.5-0.6-1.6-1.7l3.7-0.5C32.3,29.6,32.1,28.9,31.7,28.3z M28.5,30.5c0-0.7,0.1-1.2,0.3-1.6c0.2-0.3,0.6-0.5,1-0.5c0.4,0,0.7,0.1,0.9,0.4c0.2,0.3,0.3,0.7,0.3,1.3L28.5,30.5z"></path></g><g><circle class="st0" cx="21.8" cy="25.5" r="1.1"></circle><path class="st0" d="M9.7,11c1.9,4.9,6.6,8.3,12.1,8.3S32,15.9,33.8,11H9.7z"></path></g></svg>