<svg xmlns="http://www.w3.org/2000/svg" viewBox="0 0 48 48"><style type="text/css">.st0{fill:#ED6608;}</style><g><path d="M40,8H8c-2.2,0-4,1.8-4,4v24c0,2.2,1.8,4,4,4h32c2.2,0,4-1.8,4-4V12C44,9.8,42.2,8,40,8z M42,36c0,1.1-0.9,2-2,2H8c-1.1,0-2-0.9-2-2V12c0-1.1,0.9-2,2-2h32c1.1,0,2,0.9,2,2V36z"></path><path d="M36.9,28.4v4.3h1.4v-4.3c0-0.2,0-0.5-0.1-0.7c-0.1-0.2-0.2-0.4-0.4-0.6c-0.2-0.2-0.4-0.3-0.7-0.4c-0.3-0.1-0.7-0.2-1.1-0.2c-0.5,0-1,0-1.3,0.1c-0.4,0.1-0.7,0.2-1,0.3v5.7h1.4v-5.1c0.1-0.1,0.3-0.1,0.4-0.1c0.1,0,0.3,0,0.5,0c0.2,0,0.4,0,0.5,0.1c0.1,0.1,0.2,0.1,0.3,0.2c0.1,0.1,0.1,0.2,0.2,0.3C36.9,28.2,36.9,28.3,36.9,28.4z"></path><path d="M25.8,26.6c-0.3,0-0.5,0-0.8,0.1c-0.2,0-0.4,0.1-0.6,0.1c-0.2,0.1-0.3,0.1-0.5,0.2v5.7h1.4v-5.1c0.2-0.1,0.3-0.1,0.6-0.2c0.2,0,0.5,0,0.7,0.1l0.3-1C26.4,26.6,26.1,26.6,25.8,26.6z"></path><rect x="21.1" y="26.7" width="1.4" height="6"></rect><path d="M18.9,27c-0.2-0.2-0.4-0.3-0.7-0.4c-0.3-0.1-0.6-0.1-0.9-0.1c-0.5,0-0.9,0.1-1.2,0.2c-0.4,0.1-0.6,0.2-0.8,0.3l0.3,0.8c0.2-0.1,0.4-0.2,0.7-0.3c0.3-0.1,0.5-0.1,0.8-0.1c0.2,0,0.3,0,0.5,0c0.1,0,0.3,0.1,0.4,0.2c0.1,0.1,0.2,0.2,0.2,0.3c0.1,0.1,0.1,0.3,0.1,0.5v0.3c-0.5,0-0.9,0.1-1.3,0.2c-0.4,0.1-0.8,0.2-1.1,0.4c-0.3,0.2-0.5,0.4-0.7,0.6C15,30.2,15,30.6,15,31c0,0.6,0.2,1,0.6,1.3c0.4,0.3,1,0.5,1.8,0.5c0.5,0,0.9,0,1.3-0.1c0.4-0.1,0.7-0.2,0.9-0.3v-3.7c0-0.4-0.1-0.7-0.2-1C19.3,27.4,19.1,27.2,18.9,27z M17.9,32c-0.1,0-0.3,0-0.4,0c-0.4,0-0.7-0.1-0.9-0.3c-0.2-0.2-0.3-0.5-0.3-0.9c0-0.3,0-0.5,0.1-0.7c0.1-0.2,0.2-0.3,0.4-0.4c0.2-0.1,0.4-0.2,0.7-0.3c0.3-0.1,0.5-0.1,0.9-0.2v2.5h0C18.2,31.9,18.1,31.9,17.9,32z"></path><path d="M31.1,31.7c-0.2,0.1-0.5,0.1-0.9,0.1c-1,0-1.5-0.6-1.6-1.7l3.7-0.5c0-1-0.2-1.8-0.6-2.3c-0.4-0.5-1-0.8-1.8-0.8c-0.4,0-0.7,0.1-1.1,0.2c-0.3,0.1-0.6,0.3-0.8,0.6c-0.2,0.3-0.4,0.6-0.5,1c-0.1,0.4-0.2,0.8-0.2,1.3c0,1,0.3,1.8,0.8,2.3c0.5,0.5,1.2,0.8,2,0.8c0.5,0,0.9,0,1.2-0.1c0.3-0.1,0.6-0.2,0.8-0.3l-0.3-0.9C31.6,31.6,31.4,31.7,31.1,31.7z M28.9,27.9c0.2-0.3,0.6-0.5,1-0.5c0.4,0,0.7,0.1,0.9,0.4c0.2,0.3,0.3,0.7,0.3,1.3l-2.5,0.4C28.5,28.8,28.6,28.2,28.9,27.9z"></path><rect x="36" y="34" width="0.4" height="1.9"></rect><path d="M38.2,34.3c-0.1-0.2-0.3-0.2-0.6-0.2c-0.1,0-0.2,0-0.3,0.1c-0.1,0-0.2,0.1-0.3,0.2c-0.1,0.1-0.1,0.2-0.2,0.3c0,0.1-0.1,0.3-0.1,0.4c0,0.3,0.1,0.6,0.2,0.7c0.2,0.2,0.4,0.3,0.6,0.3c0.1,0,0.3,0,0.4,0c0.1,0,0.2-0.1,0.3-0.1l-0.1-0.3c-0.1,0-0.1,0-0.2,0.1c-0.1,0-0.2,0-0.3,0c-0.3,0-0.5-0.2-0.5-0.5l1.2-0.2C38.4,34.7,38.3,34.4,38.2,34.3z M37.2,34.9c0-0.2,0-0.4,0.1-0.5c0.1-0.1,0.2-0.2,0.3-0.2c0.1,0,0.2,0,0.3,0.1c0.1,0.1,0.1,0.2,0.1,0.4L37.2,34.9z"></path><path d="M36.2,33.3c-0.1,0-0.1,0-0.2,0.1c0,0-0.1,0.1-0.1,0.2c0,0.1,0,0.1,0.1,0.1c0,0,0.1,0.1,0.2,0.1c0.1,0,0.1,0,0.2-0.1c0,0,0.1-0.1,0.1-0.1c0-0.1,0-0.1-0.1-0.2C36.3,33.3,36.3,33.3,36.2,33.3z"></path><path d="M33.2,34.1c-0.1,0-0.2,0-0.3,0c-0.1,0-0.2,0-0.3,0.1c-0.1,0-0.2,0.1-0.3,0.2c-0.1,0.1-0.1,0.2-0.2,0.3c0,0.1-0.1,0.3-0.1,0.4c0,0.3,0.1,0.5,0.2,0.7c0.2,0.2,0.4,0.3,0.7,0.3c0.1,0,0.3,0,0.4,0s0.2-0.1,0.3-0.1v-2.7h-0.4V34.1z M33.2,35.7c0,0-0.1,0-0.2,0c-0.1,0-0.2,0-0.2-0.1c-0.1,0-0.1-0.1-0.1-0.1c0-0.1-0.1-0.1-0.1-0.2c0-0.1,0-0.2,0-0.3c0-0.1,0-0.2,0-0.3c0-0.1,0-0.2,0.1-0.2c0-0.1,0.1-0.1,0.2-0.2c0.1,0,0.1-0.1,0.2-0.1c0.1,0,0.1,0,0.2,0L33.2,35.7L33.2,35.7L33.2,35.7z"></path><path d="M28.9,35.7c0,0-0.1,0-0.1,0c-0.1,0-0.2-0.1-0.3-0.2c-0.1-0.1-0.1-0.3-0.1-0.5c0-0.1,0-0.2,0-0.3c0-0.1,0-0.2,0.1-0.2c0-0.1,0.1-0.1,0.1-0.1c0.1,0,0.1,0,0.2,0c0.1,0,0.1,0,0.2,0c0,0,0.1,0,0.1,0.1l0.1-0.2c0,0-0.1-0.1-0.2-0.1c-0.1,0-0.2,0-0.3,0c-0.1,0-0.2,0-0.3,0.1c-0.1,0-0.2,0.1-0.2,0.2c-0.1,0.1-0.1,0.2-0.2,0.3c0,0.1-0.1,0.3-0.1,0.4c0,0.2,0,0.3,0.1,0.4c0,0.1,0.1,0.2,0.2,0.3s0.1,0.1,0.2,0.2c0.1,0,0.2,0.1,0.3,0.1c0.1,0,0.2,0,0.3,0c0.1,0,0.1-0.1,0.2-0.1L29,35.6C29,35.6,28.9,35.6,28.9,35.7z"></path><rect x="31.3" y="33.2" width="0.4" height="2.8"></rect><path d="M30.6,34.2c-0.1-0.1-0.1-0.1-0.2-0.1c-0.1,0-0.2,0-0.3,0c-0.2,0-0.3,0-0.4,0c-0.1,0-0.2,0.1-0.3,0.1l0.1,0.2c0.1,0,0.1-0.1,0.2-0.1c0.1,0,0.2,0,0.3,0c0.1,0,0.1,0,0.2,0c0,0,0.1,0,0.1,0c0,0,0.1,0.1,0.1,0.1c0,0,0,0.1,0,0.2v0.1c-0.1,0-0.3,0-0.4,0.1c-0.1,0-0.2,0.1-0.3,0.1c-0.1,0.1-0.2,0.1-0.2,0.2c-0.1,0.1-0.1,0.2-0.1,0.3c0,0.2,0.1,0.3,0.2,0.4c0.1,0.1,0.3,0.2,0.6,0.2c0.1,0,0.3,0,0.4,0c0.1,0,0.2-0.1,0.3-0.1v-1.2c0-0.1,0-0.2-0.1-0.3C30.7,34.3,30.7,34.2,30.6,34.2z M30.4,35.7c0,0-0.1,0-0.1,0c0,0-0.1,0-0.1,0c-0.1,0-0.2,0-0.3-0.1c-0.1-0.1-0.1-0.1-0.1-0.3c0-0.1,0-0.2,0-0.2c0-0.1,0.1-0.1,0.1-0.1c0.1,0,0.1-0.1,0.2-0.1c0.1,0,0.2,0,0.3,0V35.7z"></path><path d="M35.3,34.2c-0.1-0.1-0.1-0.1-0.2-0.1c-0.1,0-0.2,0-0.3,0c-0.2,0-0.3,0-0.4,0c-0.1,0-0.2,0.1-0.3,0.1l0.1,0.2c0.1,0,0.1-0.1,0.2-0.1c0.1,0,0.2,0,0.3,0c0.1,0,0.1,0,0.2,0c0,0,0.1,0,0.1,0c0,0,0.1,0.1,0.1,0.1c0,0,0,0.1,0,0.2v0.1c-0.1,0-0.3,0-0.4,0.1c-0.1,0-0.2,0.1-0.3,0.1c-0.1,0.1-0.2,0.1-0.2,0.2c-0.1,0.1-0.1,0.2-0.1,0.3c0,0.2,0.1,0.3,0.2,0.4c0.1,0.1,0.3,0.2,0.6,0.2c0.1,0,0.3,0,0.4,0c0.1,0,0.2-0.1,0.3-0.1v-1.2c0-0.1,0-0.2-0.1-0.3C35.4,34.3,35.4,34.2,35.3,34.2z M35,35.7c0,0-0.1,0-0.1,0c-0.1,0-0.2,0-0.3-0.1c-0.1-0.1-0.1-0.1-0.1-0.3c0-0.1,0-0.2,0-0.2c0-0.1,0.1-0.1,0.1-0.1c0.1,0,0.1-0.1,0.2-0.1c0.1,0,0.2,0,0.3,0v0.8h0C35.1,35.7,35,35.7,35,35.7z"></path></g><g><circle class="st0" cx="21.8" cy="24.5" r="1.1"></circle><path class="st0" d="M9.7,10c1.9,4.9,6.6,8.3,12.1,8.3S32,14.9,33.8,10H9.7z"></path></g></svg>