<svg xmlns="http://www.w3.org/2000/svg" viewBox="0 0 48 48"><style type="text/css">.mkcb-icon-accent{fill:#EA4335;}</style><g><g><path class="mkcb-icon-accent" d="M16,28.6c0.2,0.2,0.5,0.2,0.7,0l5.7-5.7c0.2-0.2,0.2-0.5,0-0.7l-1.1-1.1c-0.2-0.2-0.5-0.2-0.7,0l-4.3,4.2l-1.8-1.9c-0.2-0.2-0.5-0.2-0.7,0l-1.1,1.1c-0.2,0.2-0.2,0.5,0,0.7L16,28.6L16,28.6z"></path></g><g><path d="M34.7,24.9h-9.5c-0.2,0.2-0.4,0.4-0.8,0.6l-3.1,1.4h13.4c0.4,0,0.7-0.1,0.7-0.3v-1.3C35.4,25.1,35.1,24.9,34.7,24.9z"></path><g><path d="M17.7,9.8c-0.5-0.2-1-0.4-1.7-0.4h-3.3V18h1.8v-3H16c1,0,1.8-0.2,2.4-0.7s0.9-1.1,0.9-2c0-0.6-0.1-1-0.4-1.5S18.2,10.1,17.7,9.8z M17.1,13.2c-0.2,0.2-0.6,0.3-1.1,0.3h-1.6v-2.7H16c0.4,0,0.8,0.1,1,0.4s0.4,0.6,0.4,1C17.4,12.7,17.3,13,17.1,13.2z"></path><path d="M24.6,12.3c-0.5-0.5-1.2-0.8-2.1-0.8c-0.6,0-1.1,0.1-1.6,0.4s-0.8,0.7-1,1.1s-0.4,1.1-0.4,1.7v0.1c0,1,0.3,1.8,0.8,2.4s1.3,0.9,2.2,0.9s1.6-0.3,2.2-0.9s0.8-1.4,0.8-2.3l0-0.4C25.4,13.6,25.1,12.9,24.6,12.3z M23.4,16.3c-0.2,0.3-0.6,0.5-1,0.5c-0.4,0-0.7-0.2-1-0.5c-0.2-0.3-0.3-0.8-0.3-1.4c0-0.7,0.1-1.2,0.3-1.5c0.2-0.3,0.5-0.5,1-0.5c0.4,0,0.7,0.2,1,0.5c0.2,0.3,0.3,0.8,0.3,1.4C23.8,15.5,23.7,16,23.4,16.3z"></path><g><circle cx="15.4" cy="33.8" r="2.5"></circle><path d="M34.7,32.8H21.9c-0.4,0-0.7,0.2-0.7,0.3v1.3c0,0.2,0.3,0.3,0.7,0.3h12.9c0.4,0,0.7-0.2,0.7-0.3v-1.3C35.4,33,35.1,32.8,34.7,32.8z"></path><path d="M40,4H8C5.8,4,4,5.8,4,8v32c0,2.2,1.8,4,4,4h32c2.2,0,4-1.8,4-4V8C44,5.8,42.2,4,40,4z M42,40c0,1.1-0.9,2-2,2H8c-1.1,0-2-0.9-2-2V8c0-1.1,0.9-2,2-2h32c1.1,0,2,0.9,2,2V40z"></path></g><path d="M30.3,14.5c-0.3-0.1-0.6-0.2-1.1-0.3s-0.7-0.2-0.9-0.3S28,13.6,28,13.4c0-0.2,0.1-0.4,0.2-0.5s0.4-0.2,0.7-0.2c0.3,0,0.6,0.1,0.7,0.2s0.2,0.4,0.2,0.6h1.7c0-0.6-0.2-1.1-0.7-1.5s-1.1-0.6-1.9-0.6c-0.8,0-1.4,0.2-1.8,0.6s-0.7,0.8-0.7,1.4c0,1,0.8,1.6,2.3,1.9c0.5,0.1,0.8,0.2,1,0.3S30,16,30,16.2c0,0.2-0.1,0.4-0.2,0.5s-0.4,0.2-0.7,0.2c-0.3,0-0.6-0.1-0.8-0.2s-0.3-0.4-0.3-0.7h-1.6c0,0.4,0.1,0.7,0.4,1.1s0.6,0.6,1,0.8s0.9,0.3,1.4,0.3c0.8,0,1.4-0.2,1.9-0.5s0.7-0.8,0.7-1.4C31.6,15.4,31.2,14.8,30.3,14.5z"></path><path d="M34.9,16.6c-0.1-0.1-0.1-0.3-0.1-0.5v-3.2h1.1v-1.2h-1.1v-1.6H33v1.6h-0.9v1.2H33v3.4c0,1.2,0.6,1.8,1.8,1.8c0.4,0,0.7-0.1,1-0.2v-1.3c-0.1,0-0.3,0-0.5,0C35.1,16.7,34.9,16.7,34.9,16.6z"></path></g></g></g></svg>