<svg xmlns="http://www.w3.org/2000/svg" viewBox="0 0 48 48"><style type="text/css">.hap-icon-accent{fill:#EA4335;}</style><g><path d="M40,40H8c-2.2,0-4-1.8-4-4V12c0-2.2,1.8-4,4-4h32c2.2,0,4,1.8,4,4v24C44,38.2,42.2,40,40,40z M8,11c-0.6,0-1,0.4-1,1v24c0,0.6,0.4,1,1,1h32c0.6,0,1-0.4,1-1V12c0-0.6-0.4-1-1-1H8z"></path><path class="hap-icon-accent" d="M24.7,28.2h-2.3L21.6,33h-2.1l0.8-4.8h-2.7v-2h3l0.6-3.3h-2.7v-2h3.1l0.9-4.9h2.1l-0.9,4.9H26l0.9-4.9H29l-0.9,4.9h2.6v2h-2.9l-0.6,3.3h2.6v2h-3L26,33h-2.1L24.7,28.2z M22.8,26.2H25l0.6-3.3h-2.3L22.8,26.2z"></path></g></svg>