<svg xmlns="http://www.w3.org/2000/svg" viewBox="0 0 48 48"><g><path d="M39.2,5.5c-0.6,0-1.2,0.1-1.7,0.4C34.4,7.3,31.8,8,29.4,8c-2.2,0-3.9-0.5-5.7-1.1c-2-0.6-4.1-1.3-7-1.3C14.3,5.5,11.7,6,8.7,7C8.7,6.1,8,5.5,7.1,5.5c-0.9,0-1.6,0.7-1.6,1.6v34.3c0,0.6,0.5,1.1,1.1,1.1h1.1c0.6,0,1.1-0.5,1.1-1.1v-6.7c2.7-0.9,5.2-1.4,7.6-1.4c2.8,0,5.2,0.6,7.6,1.2c2.4,0.6,4.9,1.2,7.8,1.2c2.8,0,5.7-0.6,8.9-1.8c1.2-0.5,1.9-1.5,1.9-2.7V8.3C42.5,6.7,41.1,5.5,39.2,5.5L39.2,5.5z M39.2,8.8V31c-0.9,0.4-4.2,1.5-7.5,1.5c-2.5,0-4.7-0.6-7.1-1.1c-2.5-0.6-5.1-1.3-8.3-1.3c-2.4,0-4.9,0.4-7.5,1.2V10.4c3-1.1,5.6-1.6,7.9-1.6c2.3,0,4.2,0.6,6.1,1.2c2,0.6,4,1.3,6.6,1.3c2.9,0,5.9-0.8,9.5-2.4C39.1,8.7,39.2,8.8,39.2,8.8L39.2,8.8z"></path></g></svg>