<svg xmlns="http://www.w3.org/2000/svg" viewBox="0 0 48 48"><g><path d="M39.2,6c-0.5,0-1,0.1-1.5,0.3c-3.6,1.6-6.2,2.1-8.4,2.1C24.7,8.5,22,6,16.6,6c-2.2,0-4.9,0.5-8.4,1.6V7.1C8.2,6.5,7.7,6,7.1,6C6.5,6,6,6.5,6,7.1v34.3C6,41.7,6.3,42,6.6,42h1.1c0.3,0,0.6-0.3,0.6-0.6v-7.1c3.1-1.1,5.7-1.5,8-1.5c5.7,0,9.7,2.4,15.4,2.4c2.5,0,5.3-0.5,8.7-1.8c1-0.4,1.6-1.3,1.6-2.2V8.4C42,6.9,40.7,6,39.2,6L39.2,6z M31.7,33c-5.3,0-9.3-2.4-15.4-2.4c-2.6,0-5.2,0.5-8,1.4V10c3.2-1.2,6-1.7,8.4-1.7c4.9,0,7.6,2.4,12.7,2.4c2.8,0,5.8-0.7,9.3-2.3c0.7-0.3,1.1,0,1.1,0.4v22.5C39.7,31.5,35.6,33,31.7,33L31.7,33z"></path></g></svg>