<svg xmlns="http://www.w3.org/2000/svg" viewBox="0 0 48 48"><g><path d="M40,8H8c-2.2,0-4,1.8-4,4v24c0,2.2,1.8,4,4,4h32c2.2,0,4-1.8,4-4V12C44,9.8,42.2,8,40,8z M6,36V12c0-1.1,0.9-2,2-2h32c1.1,0,2,0.9,2,2v18.7l-10.3-9.8c-0.4-0.4-1-0.4-1.4,0L13.2,38H8C6.9,38,6,37.1,6,36z M40,38H16l15-15l11,10.4V36C42,37.1,41.1,38,40,38z"></path><path d="M16.4,26.1c3.2,0,5.8-2.6,5.8-5.8s-2.6-5.8-5.8-5.8s-5.8,2.6-5.8,5.8C10.6,23.5,13.2,26.1,16.4,26.1z M16.4,16.6c2.1,0,3.8,1.7,3.8,3.8s-1.7,3.8-3.8,3.8s-3.8-1.7-3.8-3.8S14.3,16.6,16.4,16.6z"></path></g></svg>