<svg xmlns="http://www.w3.org/2000/svg" viewBox="0 0 48 48"><g><path d="M40,8H8c-2.2,0-4,1.8-4,4v6v2v8v2v6c0,2.2,1.8,4,4,4h32c2.2,0,4-1.8,4-4v-6v-2v-8v-2v-6C44,9.8,42.2,8,40,8z M42,36c0,1.1-0.9,2-2,2H8c-1.1,0-2-0.9-2-2v-6h36V36z M42,28H6v-8h36V28z M6,18v-6c0-1.1,0.9-2,2-2h32c1.1,0,2,0.9,2,2v6H6z"></path><path d="M38.1,12.3L36,15.4c-0.2,0.2-0.3,0.4-0.5,0.4c-0.2,0-0.4-0.1-0.5-0.4l-2.1-3.1c-0.2-0.3-0.6-0.4-0.9-0.2c-0.2,0.1-0.3,0.3-0.3,0.5c0,0.1,0,0.2,0.1,0.3l2.1,3.1c0.4,0.6,1,0.9,1.6,0.9c0.6,0,1.2-0.3,1.6-0.9l2.1-3.1c0.2-0.3,0.1-0.7-0.2-0.9C38.7,11.9,38.3,12,38.1,12.3z"></path><path d="M31.9,22.5l2.1,3.1c0.4,0.6,1,0.9,1.6,0.9c0.6,0,1.2-0.3,1.6-0.9l2.1-3.1c0.2-0.3,0.1-0.7-0.2-0.9c-0.3-0.2-0.7-0.1-0.9,0.2L36,24.9c-0.2,0.2-0.3,0.4-0.5,0.4c-0.2,0-0.4-0.1-0.5-0.4l-2.1-3.1c-0.2-0.3-0.6-0.4-0.9-0.2c-0.2,0.1-0.3,0.3-0.3,0.5C31.8,22.2,31.8,22.4,31.9,22.5z"></path><path d="M33.9,35.6c0.4,0.6,1,0.9,1.6,0.9c0.6,0,1.2-0.3,1.6-0.9l2.1-3.1c0.2-0.3,0.1-0.7-0.2-0.9c-0.3-0.2-0.7-0.1-0.9,0.2L36,34.9c-0.2,0.2-0.3,0.4-0.5,0.4c-0.2,0-0.4-0.1-0.5-0.4l-2.1-3.1c-0.2-0.3-0.6-0.4-0.9-0.2c-0.2,0.1-0.3,0.3-0.3,0.5c0,0.1,0,0.2,0.1,0.3L33.9,35.6z"></path></g></svg>