<svg xmlns="http://www.w3.org/2000/svg" viewBox="0 0 48 48"><style type="text/css">.hap-icon-accent{fill:#ea4335;}</style><g><path class="hap-icon-accent" d="M19.4,18.5c-1.2,0-2.2,0.4-2.8,1.2c-0.7,0.8-1,2-1,3.6v2.1c0,1.5,0.4,2.7,1,3.5s1.6,1.2,2.8,1.2c1.3,0,2.2-0.4,2.9-1.2c0.7-0.8,1-2,1-3.6v-2.1c0-1.5-0.4-2.7-1-3.5C21.6,18.9,20.6,18.5,19.4,18.5z M21,25.7c0,0.9-0.1,1.6-0.4,2c-0.2,0.4-0.6,0.6-1.2,0.6c-0.6,0-1-0.2-1.2-0.7c-0.3-0.5-0.4-1.1-0.4-2.1v-2.8c0-0.9,0.1-1.5,0.4-1.9c0.3-0.4,0.6-0.6,1.2-0.6c0.5,0,0.9,0.2,1.2,0.6S21,22.1,21,23V25.7z"></path><polygon class="st0" points="30,18.6 25.3,20.3 25.3,22.1 28,21.3 28,30 30.2,30 30.2,18.6 "></polygon></g><path d="M43.9,37c0.1-0.3,0.1-0.7,0.1-1V12c0-2.2-1.8-4-4-4H8c-2.2,0-4,1.8-4,4v24c0,0.3,0.1,0.7,0.1,1H0v3h8h32h8v-3H43.9z M8,37c-0.6,0-1-0.4-1-1V12c0-0.6,0.4-1,1-1h32c0.6,0,1,0.4,1,1v24c0,0.6-0.4,1-1,1H8z"></path></svg>