<svg xmlns="http://www.w3.org/2000/svg" viewBox="0 0 48 48"><g><path d="M40,8H8c-2.2,0-4,1.8-4,4v24c0,2.2,1.8,4,4,4h32c2.2,0,4-1.8,4-4V12C44,9.8,42.2,8,40,8z M42,36c0,1.1-0.9,2-2,2H8c-1.1,0-2-0.9-2-2V12c0-1.1,0.9-2,2-2h32c1.1,0,2,0.9,2,2V36z"></path><path d="M38.1,12.3L36,15.4c-0.2,0.2-0.3,0.4-0.5,0.4s-0.4-0.1-0.5-0.4l-2.1-3.1c-0.2-0.3-0.6-0.4-0.9-0.2c-0.2,0.1-0.3,0.3-0.3,0.5c0,0.1,0,0.2,0.1,0.3l2.1,3.1c0.4,0.6,1,0.9,1.6,0.9s1.2-0.3,1.6-0.9l2.1-3.1c0.2-0.3,0.1-0.7-0.2-0.9C38.7,11.9,38.3,12,38.1,12.3z"></path></g></svg>