<svg xmlns="http://www.w3.org/2000/svg" viewBox="0 0 48 48"><style type="text/css">.hap-icon-accent{fill:#EA4335;}</style><path d="M44,12h-2v-2c0-2.2-1.8-4-4-4H6c-2.2,0-4,1.8-4,4v24c0,2.2,1.8,4,4,4h2v2c0,2.2,1.8,4,4,4h32c2.2,0,4-1.8,4-4V16C48,13.8,46.2,12,44,12z M5,34V10c0-0.6,0.4-1,1-1h32c0.6,0,1,0.4,1,1v24c0,0.6-0.4,1-1,1H6C5.4,35,5,34.6,5,34z M45,40c0,0.6-0.4,1-1,1H12c-0.6,0-1-0.4-1-1v-2h27c2.2,0,4-1.8,4-4V15h2c0.6,0,1,0.4,1,1V40z"></path><g><path class="hap-icon-accent" d="M13.8,19.9c0.3-0.4,0.7-0.6,1.3-0.6c0.5,0,0.9,0.1,1.2,0.4s0.4,0.6,0.5,1.2h1.8c-0.1-1-0.4-1.7-1-2.2s-1.4-0.8-2.4-0.8c-0.7,0-1.3,0.2-1.9,0.5s-1,0.8-1.2,1.4s-0.4,1.3-0.4,2.2v0.5c0,1.3,0.3,2.3,0.9,3s1.5,1.1,2.6,1.1c1,0,1.8-0.3,2.4-0.8s1-1.2,1-2.2h-1.8c0,0.5-0.2,0.9-0.5,1.2s-0.7,0.4-1.2,0.4c-0.6,0-1-0.2-1.3-0.6s-0.4-1.1-0.4-2v-0.6C13.3,21,13.5,20.3,13.8,19.9z"></path><polygon class="hap-icon-accent" points="20,26.5 21.7,26.5 21.7,23 25.1,23 25.1,21.6 21.7,21.6 21.7,19.4 25.5,19.4 25.5,18 20,18 "></polygon><polygon class="hap-icon-accent" points="26.4,18 26.4,19.3 30.7,19.3 27.4,26.5 29.2,26.5 32.5,18.9 32.5,18 "></polygon></g></svg>