<svg xmlns="http://www.w3.org/2000/svg" viewBox="0 0 48 48"><g><path d="M40,8H8c-2.2,0-4,1.8-4,4v24c0,2.2,1.8,4,4,4h32c2.2,0,4-1.8,4-4V12C44,9.8,42.2,8,40,8z M42,36c0,1.1-0.9,2-2,2H8c-1.1,0-2-0.9-2-2V12c0-1.1,0.9-2,2-2h32c1.1,0,2,0.9,2,2V36z"></path><path d="M25.9,24.2c0.5-0.2,0.9-0.6,1.2-1s0.5-0.9,0.5-1.4c0-1-0.3-1.8-1-2.4c-0.7-0.6-1.6-0.9-2.8-0.9c-0.7,0-1.3,0.1-1.9,0.4c-0.6,0.3-1,0.6-1.3,1.1c-0.3,0.5-0.5,1-0.5,1.6h2.3c0-0.4,0.1-0.7,0.4-0.9c0.3-0.2,0.7-0.4,1.1-0.4c0.5,0,0.9,0.1,1.1,0.4c0.3,0.3,0.4,0.6,0.4,1.1c0,0.5-0.1,0.9-0.4,1.1c-0.3,0.3-0.7,0.4-1.3,0.4h-1.2v1.8h1.2c1.2,0,1.9,0.6,1.9,1.7c0,0.5-0.2,0.8-0.5,1.1s-0.7,0.4-1.3,0.4c-0.5,0-0.9-0.1-1.2-0.4s-0.5-0.6-0.5-1h-2.3c0,1,0.4,1.8,1.1,2.4c0.7,0.6,1.6,0.9,2.8,0.9c1.2,0,2.2-0.3,2.9-0.9s1.1-1.4,1.1-2.4c0-0.6-0.2-1.2-0.5-1.6S26.5,24.4,25.9,24.2z"></path></g></svg>