<svg xmlns="http://www.w3.org/2000/svg" viewBox="0 0 48 48"><style type="text/css">.mkcb-icon-accent{fill:#EA4335;}</style><g><g><g><path d="M40,40H8c-2.2,0-4-1.8-4-4V12c0-2.2,1.8-4,4-4h32c2.2,0,4,1.8,4,4v24C44,38.2,42.2,40,40,40z M8,11c-0.6,0-1,0.4-1,1v24c0,0.6,0.4,1,1,1h32c0.6,0,1-0.4,1-1V12c0-0.6-0.4-1-1-1H8z"></path></g></g><g><path class="mkcb-icon-accent" d="M22.5,23.3h1.2c0.6,0,1-0.1,1.3-0.4c0.3-0.3,0.4-0.7,0.4-1.1c0-0.5-0.1-0.8-0.4-1.1c-0.3-0.3-0.7-0.4-1.1-0.4c-0.4,0-0.8,0.1-1.1,0.4c-0.3,0.2-0.4,0.5-0.4,0.9H20c0-0.6,0.2-1.1,0.5-1.6c0.3-0.5,0.8-0.8,1.3-1.1c0.6-0.3,1.2-0.4,1.9-0.4c1.2,0,2.1,0.3,2.8,0.9c0.7,0.6,1,1.4,1,2.4c0,0.5-0.2,1-0.5,1.4s-0.7,0.8-1.2,1c0.6,0.2,1.1,0.6,1.4,1s0.5,1,0.5,1.6c0,1-0.4,1.8-1.1,2.4s-1.7,0.9-2.9,0.9c-1.1,0-2.1-0.3-2.8-0.9c-0.7-0.6-1.1-1.4-1.1-2.4h2.3c0,0.4,0.2,0.8,0.5,1s0.7,0.4,1.2,0.4c0.5,0,1-0.1,1.3-0.4s0.5-0.7,0.5-1.1c0-1.1-0.6-1.7-1.9-1.7h-1.2V23.3z"></path></g></g></svg>