<svg xmlns="http://www.w3.org/2000/svg" viewBox="0 0 48 48"><style type="text/css">.hap-icon-accent{fill:#EA4335;}</style><g><path d="M40,8H8c-2.2,0-4,1.8-4,4v24c0,2.2,1.8,4,4,4h32c2.2,0,4-1.8,4-4V12C44,9.8,42.2,8,40,8z M7,36V12c0-0.6,0.4-1,1-1h32c0.6,0,1,0.4,1,1v17l-9-8.5c-0.6-0.6-1.5-0.5-2.1,0L13.9,37c0,0,0,0,0,0H8C7.4,37,7,36.6,7,36z M40,37H18.1l13-13.3l9.9,9.4c0,0,0,0,0,0V36C41,36.6,40.6,37,40,37z"></path><path class="hap-icon-accent" d="M16.4,26.6c3.5,0,6.3-2.8,6.3-6.3s-2.8-6.3-6.3-6.3s-6.3,2.8-6.3,6.3S12.9,26.6,16.4,26.6z M16.4,17.1c1.8,0,3.3,1.5,3.3,3.3c0,1.8-1.5,3.3-3.3,3.3c-1.8,0-3.3-1.5-3.3-3.3C13.1,18.5,14.6,17.1,16.4,17.1z"></path></g></svg>